<?xml version="1.0" encoding="UTF-8"?>
<svg id="Ebene_1" data-name="Ebene 1" xmlns="http://www.w3.org/2000/svg" version="1.1" viewBox="0 0 1920 496.96">
  <defs>
    <style>
      .cls-1 {
        fill: #d5b6b8;
      }

      .cls-1, .cls-2 {
        stroke-width: 0px;
      }

      .cls-2 {
        fill: #000;
      }
    </style>
  </defs>
  <g>
    <path class="cls-2" d="M128.93,275.06c0,5.8-1.06,10.75-3.19,14.86-2.13,4.11-4.97,7.24-8.53,9.41-3.56,2.16-7.58,3.32-12.05,3.47v-5.17c5.28-.29,9.67-2.39,13.15-6.27,3.48-3.89,5.23-9.43,5.23-16.62v-66.03h5.39v66.36Z"/>
    <path class="cls-2" d="M149.73,286.84l33.02-81.55h.44l33.02,81.55h-6.05l-28.72-72.96,3.74-2.09-30.04,75.06h-5.39ZM165.69,255.91h34.67l1.54,5.06h-37.53l1.32-5.06Z"/>
    <path class="cls-2" d="M290.59,281.66c-1.69,1.03-3.63,2.02-5.83,2.97-2.2.95-4.62,1.71-7.26,2.26-2.64.55-5.5.83-8.58.83-5.94,0-11.34-1.05-16.18-3.14-4.84-2.09-8.99-4.95-12.44-8.58-3.45-3.63-6.11-7.81-7.98-12.55-1.87-4.73-2.81-9.78-2.81-15.13,0-5.72.99-11.04,2.97-15.96,1.98-4.91,4.77-9.21,8.36-12.88,3.59-3.67,7.78-6.53,12.55-8.58,4.77-2.05,9.94-3.08,15.52-3.08,4.11,0,7.96.55,11.56,1.65,3.59,1.1,6.86,2.53,9.79,4.29l-2.31,4.95c-2.57-1.61-5.47-2.97-8.69-4.07-3.23-1.1-6.64-1.65-10.23-1.65-4.62,0-8.99.9-13.1,2.7-4.11,1.8-7.72,4.29-10.84,7.48-3.12,3.19-5.56,6.92-7.32,11.17-1.76,4.26-2.64,8.84-2.64,13.76s.79,9.13,2.37,13.32c1.58,4.18,3.85,7.85,6.82,11,2.97,3.16,6.55,5.63,10.73,7.43,4.18,1.8,8.84,2.7,13.98,2.7,3.81,0,7.32-.53,10.51-1.6,3.19-1.06,6.03-2.4,8.53-4.02l2.53,4.73Z"/>
    <path class="cls-2" d="M308.86,247.88c0-5.5,1.03-10.66,3.08-15.46,2.05-4.8,4.91-9.06,8.58-12.77,3.67-3.7,7.91-6.6,12.71-8.69,4.8-2.09,9.96-3.14,15.46-3.14s10.67,1.05,15.52,3.14c4.84,2.09,9.1,4.99,12.77,8.69,3.67,3.71,6.55,7.96,8.64,12.77,2.09,4.81,3.14,9.96,3.14,15.46s-1.05,10.66-3.14,15.46c-2.09,4.81-4.97,9.04-8.64,12.71s-7.92,6.53-12.77,8.58c-4.84,2.06-10.01,3.08-15.52,3.08s-10.66-.99-15.46-2.97c-4.81-1.98-9.04-4.77-12.71-8.36-3.67-3.59-6.53-7.81-8.58-12.66-2.05-4.84-3.08-10.12-3.08-15.85ZM314.37,247.99c0,4.77.88,9.24,2.64,13.43,1.76,4.18,4.22,7.85,7.37,11,3.15,3.16,6.8,5.63,10.95,7.43,4.14,1.8,8.56,2.7,13.26,2.7s9.35-.9,13.54-2.7c4.18-1.8,7.85-4.27,11.01-7.43,3.15-3.15,5.63-6.82,7.43-11,1.8-4.18,2.7-8.69,2.7-13.54s-.9-9.24-2.7-13.43c-1.8-4.18-4.27-7.87-7.43-11.06-3.16-3.19-6.82-5.7-11.01-7.54-4.18-1.83-8.66-2.75-13.43-2.75s-9.35.94-13.54,2.81c-4.18,1.87-7.83,4.42-10.95,7.65-3.12,3.23-5.54,6.95-7.26,11.17-1.72,4.22-2.59,8.64-2.59,13.26ZM361.47,281.66h29.49v5.17h-37.09l7.59-5.17Z"/>
    <path class="cls-2" d="M419.13,260.42c0,4.55.94,8.47,2.81,11.78,1.87,3.3,4.42,5.85,7.65,7.65,3.23,1.8,6.9,2.7,11.01,2.7s7.9-.9,11.17-2.7c3.26-1.8,5.83-4.35,7.7-7.65,1.87-3.3,2.81-7.23,2.81-11.78v-51.72h5.28v52.05c0,5.65-1.19,10.49-3.58,14.53-2.39,4.04-5.61,7.12-9.69,9.24-4.07,2.13-8.64,3.19-13.7,3.19s-9.63-1.06-13.7-3.19c-4.07-2.13-7.28-5.21-9.63-9.24-2.35-4.03-3.52-8.88-3.52-14.53v-52.05h5.39v51.72Z"/>
    <path class="cls-2" d="M495.29,208.7h48.2v5.17h-42.81v31.03h38.52v5.17h-38.52v31.58h44.35v5.17h-49.74v-78.14Z"/>
    <path class="cls-2" d="M568.91,208.7h5.39v72.96h42.81v5.17h-48.2v-78.14Z"/>
    <path class="cls-2" d="M638.58,208.7h5.39v78.14h-5.39v-78.14Z"/>
    <path class="cls-2" d="M737.51,288.71l-61.63-69.44,1.43-1.1.11,68.67h-5.28v-79.79h.33l61.63,69.99-1.43.44-.11-68.78h5.17v80.01h-.22Z"/>
    <path class="cls-2" d="M765.9,208.7h48.2v5.17h-42.81v31.03h38.52v5.17h-38.52v31.58h44.35v5.17h-49.74v-78.14Z"/>
  </g>
  <g>
    <path class="cls-2" d="M1243.45,286.84v-78.14h19.26c7.56,0,13.99,1.19,19.31,3.58,5.32,2.39,9.63,5.52,12.93,9.41,3.3,3.89,5.72,8.14,7.26,12.77,1.54,4.62,2.31,9.21,2.31,13.76,0,5.94-1.03,11.28-3.08,16.01-2.05,4.73-4.86,8.79-8.42,12.16-3.56,3.38-7.61,5.96-12.16,7.76-4.55,1.8-9.35,2.7-14.42,2.7h-23ZM1248.85,281.66h16.18c4.69,0,9.1-.77,13.21-2.31,4.11-1.54,7.72-3.78,10.84-6.71,3.12-2.93,5.56-6.47,7.32-10.62,1.76-4.14,2.64-8.86,2.64-14.14,0-4.47-.75-8.75-2.26-12.82-1.5-4.07-3.76-7.68-6.77-10.84-3.01-3.15-6.71-5.65-11.12-7.48-4.4-1.83-9.54-2.75-15.41-2.75h-14.64v67.68Z"/>
    <path class="cls-2" d="M1327.75,208.7h5.39v78.14h-5.39v-78.14Z"/>
    <path class="cls-2" d="M1417.45,281.66c-1.69,1.03-3.63,2.02-5.83,2.97-2.2.95-4.62,1.71-7.26,2.26-2.64.55-5.5.83-8.58.83-5.94,0-11.34-1.05-16.18-3.14-4.84-2.09-8.99-4.95-12.44-8.58-3.45-3.63-6.11-7.81-7.98-12.55-1.87-4.73-2.81-9.78-2.81-15.13,0-5.72.99-11.04,2.97-15.96,1.98-4.91,4.77-9.21,8.36-12.88,3.59-3.67,7.78-6.53,12.55-8.58,4.77-2.05,9.94-3.08,15.52-3.08,4.11,0,7.96.55,11.55,1.65,3.59,1.1,6.86,2.53,9.79,4.29l-2.31,4.95c-2.57-1.61-5.47-2.97-8.69-4.07-3.23-1.1-6.64-1.65-10.24-1.65-4.62,0-8.99.9-13.1,2.7-4.11,1.8-7.72,4.29-10.84,7.48-3.12,3.19-5.56,6.92-7.32,11.17-1.76,4.26-2.64,8.84-2.64,13.76s.79,9.13,2.37,13.32c1.58,4.18,3.85,7.85,6.82,11,2.97,3.16,6.55,5.63,10.73,7.43,4.18,1.8,8.84,2.7,13.98,2.7,3.81,0,7.32-.53,10.51-1.6,3.19-1.06,6.03-2.4,8.53-4.02l2.53,4.73Z"/>
    <path class="cls-2" d="M1446.17,243.92l-.22,3.85.33-.99,38.63-38.08h6.93l-32.36,32.03,35.99,46.11h-6.82l-33.13-42.7-9.46,9.02.11,33.68h-5.5v-78.14h5.5v35.22Z"/>
    <path class="cls-2" d="M1573.94,208.7v78.14h-5.39v-36.76h-47.1v36.76h-5.39v-78.14h5.39v36.32h47.1v-36.32h5.39Z"/>
    <path class="cls-2" d="M1595.29,286.84l33.02-81.55h.44l33.02,81.55h-6.05l-28.72-72.96,3.74-2.09-30.04,75.06h-5.39ZM1611.25,255.91h34.67l1.54,5.06h-37.53l1.32-5.06Z"/>
    <path class="cls-2" d="M1687.29,260.42c0,4.55.94,8.47,2.81,11.78,1.87,3.3,4.42,5.85,7.65,7.65,3.23,1.8,6.89,2.7,11,2.7s7.9-.9,11.17-2.7c3.26-1.8,5.83-4.35,7.7-7.65,1.87-3.3,2.81-7.23,2.81-11.78v-51.72h5.28v52.05c0,5.65-1.19,10.49-3.58,14.53-2.38,4.04-5.61,7.12-9.68,9.24-4.07,2.13-8.64,3.19-13.7,3.19s-9.63-1.06-13.7-3.19c-4.07-2.13-7.28-5.21-9.63-9.24-2.35-4.03-3.52-8.88-3.52-14.53v-52.05h5.39v51.72Z"/>
    <path class="cls-2" d="M1802.52,217.5c-2.28-1.1-5.06-2.13-8.36-3.08-3.3-.95-6.6-1.43-9.91-1.43-5.14,0-9.24,1.28-12.33,3.85-3.08,2.57-4.62,5.8-4.62,9.68,0,2.94.88,5.38,2.64,7.32,1.76,1.94,4.07,3.6,6.93,4.95,2.86,1.36,5.91,2.66,9.13,3.91,2.57.95,5.12,2.02,7.65,3.19,2.53,1.17,4.82,2.6,6.88,4.29,2.05,1.69,3.69,3.78,4.9,6.27,1.21,2.5,1.82,5.58,1.82,9.24,0,4.33-1.03,8.16-3.08,11.5-2.05,3.34-4.92,5.93-8.58,7.76-3.67,1.83-7.92,2.75-12.77,2.75-3.89,0-7.43-.48-10.62-1.43-3.19-.95-5.98-2.07-8.36-3.36-2.38-1.28-4.28-2.37-5.67-3.25l2.53-4.4c1.61,1.17,3.58,2.35,5.89,3.52,2.31,1.17,4.82,2.17,7.54,2.97,2.71.81,5.43,1.21,8.14,1.21,3.15,0,6.22-.62,9.19-1.87,2.97-1.25,5.43-3.14,7.37-5.67,1.94-2.53,2.92-5.74,2.92-9.63s-.92-6.77-2.75-9.08c-1.83-2.31-4.18-4.2-7.04-5.67-2.86-1.47-5.91-2.79-9.13-3.96-2.49-.95-4.99-1.96-7.48-3.03-2.5-1.06-4.77-2.35-6.82-3.85-2.05-1.5-3.69-3.32-4.9-5.45-1.21-2.13-1.82-4.69-1.82-7.7,0-3.74.95-7.01,2.86-9.79,1.91-2.79,4.49-4.97,7.76-6.55,3.26-1.58,6.99-2.4,11.17-2.48,3.67,0,7.39.48,11.17,1.43,3.78.95,7.06,2.17,9.85,3.63l-2.09,4.18Z"/>
  </g>
  <path class="cls-1" d="M1187.7,199.63h0c-3.17-10.62-8.06-21.51-14.53-32.38-6.45-10.83-14.16-21.23-22.93-30.9-8.48-9.35-18.36-18.28-29.37-26.55l4.88-20.93c1.68-7.1,3.31-16.28,4.84-27.29l.52-3.76-25.59,11.27-.09,1.28c-.57,8.3-1.98,16.86-4.19,25.48-32.91-20.26-62.59-30.52-88.25-30.52-10.37,0-19.84,1.87-28.15,5.56-8.39,3.73-15.03,9.05-19.71,15.81-4.71,6.8-7.1,14.74-7.1,23.6,0,10.51,3.33,20.62,9.89,30.04,6.51,9.34,15.66,17.13,27.18,23.15l1.36.71,15.22-14.97-2.82-1.27c-8.64-3.88-15.92-8.18-21.64-12.79-5.67-4.56-10.14-9.46-13.27-14.55-3.04-4.95-4.59-9.91-4.59-14.75,0-7.71,2.85-13.67,8.7-18.22,5.94-4.61,14.07-6.96,24.17-6.96,8.72,0,18.8,1.65,29.96,4.91,11.23,3.28,22.75,7.89,34.23,13.7,11.05,5.59,21.18,11.9,30.13,18.77-3.04,14.33-7.39,31.29-12.96,50.46-11.05,39.5-22.31,70.01-33.46,90.66-7.27,13.45-14.86,24.16-22.56,31.86l-3.27-.99c-24.66-6.81-42.83-10.26-53.99-10.26-2.14,0-4.3.09-6.74.29h-.51c-9.43.15-21.93,2.55-31.06,4.31-2.4.46-4.6.88-6.47,1.21,6.59-17.73,11.94-36.46,15.92-55.73,4.24-20.54,6.39-39.12,6.39-55.2,0-18.13-2.06-32.15-6.13-41.67-4.32-10.1-10.99-15.22-19.82-15.22-6.53,0-13.28,3.09-20.06,9.19-6.58,5.92-12.56,14.35-17.78,25.04-12,24.27-18.09,48.13-18.09,70.9,0,9.5.9,17.63,2.67,24.19,1.78,6.6,4.81,13.2,9.02,19.63l1.3,1.99,17.14-14.28-1.08-1.59c-8.17-12.01-12.32-27.45-12.32-45.9,0-11.53,1.78-23.45,5.3-35.44,3.5-11.96,8.06-21.89,13.53-29.54,5.19-7.26,10.24-10.94,15-10.94,1.08,0,4.37,0,7.09,6.32,2.05,4.78,3.1,11.64,3.1,20.4,0,10.99-1.35,25.5-4.01,43.1-4.07,25.15-11.54,54.27-22.19,86.48l-.96,2.61c-11.17,2.9-21.98,6.35-32.12,10.27-10.48,4.05-20.44,8.75-29.6,13.97-9.14,5.21-18.03,11.33-26.4,18.15-9.3,7.36-17.56,15.46-24.55,24.06-7,8.63-12.53,17.39-16.43,26.03-3.95,8.75-5.95,16.97-5.95,24.42,0,9.87,2.78,17.8,8.27,23.56,5.52,5.79,13.15,8.73,22.67,8.73,13.12,0,27.7-6.43,43.33-19.12,15.4-12.51,30.71-30.12,45.5-52.36,14.54-21.88,27.13-45.94,37.42-71.53,2.42-.4,6.2-1.12,10.5-1.95-2.11,3.14-3.17,6.7-3.17,10.61,0,6.65,3.35,12.08,9.95,16.12,6.27,3.84,14.5,5.79,24.46,5.79,9.38,0,18.69-1.32,27.69-3.93,8.69-2.52,17.8-6.43,27.09-11.63l3.91,1.41c25.1,8.75,48.74,13.19,70.27,13.19,14.03,0,27.38-2.37,39.67-7.06,12.31-4.69,23.15-11.37,32.21-19.84,9.08-8.49,16.14-18.56,20.97-29.93,4.83-11.37,7.28-24,7.28-37.54,0-10.4-1.61-21.08-4.8-31.74ZM1179.81,237.52c0,13.15-3.11,25.42-9.25,36.45h0c-6.13,11.02-14.53,19.74-24.98,25.92-10.44,6.18-22.27,9.32-35.15,9.32-9.3,0-19.19-1.02-29.38-3.04-10.26-2.03-23.52-5.5-39.33-10.31l-1.74-.58c18.65-17.29,35.24-43.94,49.35-79.26,5.01-12.32,11.23-31.01,18.52-55.56,3.68-12.82,6.26-22.3,7.71-28.27,42.64,36.06,64.25,71.49,64.25,105.33ZM944.59,300.36c2.8-1.65,6.86-2.49,12.09-2.49,12.09,0,28.5,3.02,48.83,8.99-13.81,6.91-27.44,10.42-40.57,10.42-7.06,0-13.01-1.22-17.68-3.61-4.21-2.16-6.34-4.63-6.34-7.34s1.17-4.48,3.67-5.96ZM789.95,423.56c-3.14-3.96-4.73-9.14-4.73-15.41,0-10.35,3.37-21.68,10.02-33.66,6.71-12.1,15.97-23.53,27.52-33.94,10.06-8.93,22.23-17.04,36.16-24.1,12.73-6.45,26.09-11.55,39.78-15.18-3.02,8.07-6.21,15.99-9.51,23.59-6.74,15.12-12.83,27.78-18.09,37.62-5.24,9.79-10.39,18.07-15.32,24.64-20.37,27.99-38.61,42.18-54.22,42.18-4.74,0-8.54-1.88-11.61-5.73Z"/>
</svg>